<?xml version="1.0" encoding="utf-8"?>
<!-- Generator: Adobe Illustrator 23.0.2, SVG Export Plug-In . SVG Version: 6.00 Build 0)  -->
<svg version="1.1" id="Слой_1" xmlns="http://www.w3.org/2000/svg" xmlns:xlink="http://www.w3.org/1999/xlink" x="0px" y="0px"
	 viewBox="0 0 464 464" style="enable-background:new 0 0 464 464;" xml:space="preserve">
<style type="text/css">
	.st0{fill:#A16D1F;}
</style>
<path class="st0" d="M205.4,144.6c-35.3,0-63.9,28.6-63.9,63.9c0,35.3,28.6,63.9,63.9,63.9c35.3,0,63.9-28.6,63.9-63.9
	C269.2,173.2,240.6,144.6,205.4,144.6z M205.4,256.4c-26.5,0-47.9-21.4-47.9-47.9c0-26.5,21.5-47.9,47.9-47.9
	c26.5,0,47.9,21.5,47.9,47.9C253.2,234.9,231.8,256.4,205.4,256.4z"/>
<path class="st0" d="M317.1,302.3l90.2-20c4.2-10.9,7.4-22.2,9.7-33.7l-99.9,22.2V302.3z"/>
<path class="st0" d="M277.2,384.2c8.7,0,17.1,2.9,24,8.2v-128c0-3.7,2.6-7,6.3-7.8l112.2-24.9c10.1-88.1-36.8-172.9-116.8-211.2
	S127.5-1.3,65.1,61.7c-62.4,63-78,158.6-38.8,238.2c39.1,79.6,124.4,125.6,212.4,114.6C243,396.7,258.9,384.2,277.2,384.2z
	 M230,18.5C316.3,29.6,384.3,97.6,395.4,184c0.6,4.4-2.5,8.4-6.9,8.9c-0.3,0-0.7,0.1-1,0.1c-4,0-7.4-3-7.9-7
	c-10.2-79.2-72.5-141.5-151.7-151.8c-4.2-0.8-7-4.7-6.5-8.9C222,21.2,225.7,18.1,230,18.5z M181,398.5c-0.4,0-0.7,0-1.1-0.1
	c-85.8-11.5-153.3-79.1-164.6-165c-0.6-4.4,2.5-8.4,6.9-9c4.4-0.6,8.4,2.5,9,6.9c10.4,78.7,72.2,140.7,150.9,151.2
	c4.2,0.6,7.2,4.2,6.9,8.4C188.7,395.2,185.2,398.5,181,398.5L181,398.5z M205.4,288.3c-44.1,0-79.8-35.7-79.8-79.8
	s35.8-79.8,79.8-79.8c44.1,0,79.8,35.7,79.8,79.8C285.2,252.6,249.4,288.3,205.4,288.3z"/>
<path class="st0" d="M277.2,400.1c-8.3,0-15.9,4.3-20.3,11.3c10.3-2.2,20.5-5.2,30.3-9C284.1,400.9,280.7,400.1,277.2,400.1z"/>
<path class="st0" d="M317.1,388.1c35.4-20.6,64-51.1,82.2-87.7l-82.2,18.3V388.1z"/>
<path class="st0" d="M237.3,208.5c0,17.6-14.3,31.9-31.9,31.9c-17.6,0-31.9-14.3-31.9-31.9s14.3-31.9,31.9-31.9
	C223,176.5,237.3,190.8,237.3,208.5z"/>
<path class="st0" d="M296.3,398.6c-8-6.1-18.5-8-28.1-5.1c-9.7,2.9-17.4,10.1-20.8,19.6c-2.9,0.5-5.8,1.1-8.8,1.5
	c-0.8,3.1-1.2,6.3-1.3,9.6c0,22.1,17.9,39.9,39.9,39.9c22.1,0,39.9-17.9,39.9-39.9v-35.9C310.4,392,303.4,395.5,296.3,398.6z"/>
<path class="st0" d="M457.9,226.2c-1.9-1.5-4.4-2.1-6.7-1.6l-31.5,7c-0.6,5.7-1.5,11.4-2.6,16.9l27.9-6.2V274l-37.5,8.3
	c-2.4,6.2-5,12.2-7.9,18.1l45.4-10.1v78.1c-6.9-5.3-15.3-8.2-24-8.2c-22,0-39.9,17.9-39.9,39.9c0,22.1,17.9,39.9,39.9,39.9
	c22.1,0,39.9-17.9,39.9-39.9V232.4C460.9,230,459.8,227.7,457.9,226.2z"/>
</svg>
