<?xml version="1.0" encoding="utf-8"?>
<!-- Generator: Adobe Illustrator 23.0.2, SVG Export Plug-In . SVG Version: 6.00 Build 0)  -->
<svg version="1.1" id="Capa_1" xmlns="http://www.w3.org/2000/svg" xmlns:xlink="http://www.w3.org/1999/xlink" x="0px" y="0px"
	 viewBox="0 0 484.1 484.1" style="enable-background:new 0 0 484.1 484.1;" xml:space="preserve">
<style type="text/css">
	.st0{fill:#A16D1F;}
</style>
<g>
	<path class="st0" d="M189.5,81c12.6,0,22.9,10.2,22.9,22.9c0,12.6-10.3,22.9-22.9,22.9c-12.6,0-22.9-10.3-22.9-22.9
		S176.8,81,189.5,81z"/>
	<path class="st0" d="M9.2,338.5c0,4.3,3.5,7.9,7.9,7.9h126.2l20.1-15.7H229V71.6c0-4.3-3.5-7.9-7.9-7.9H71.6
		C64,56.1,53.5,51.4,41.9,51.4C18.8,51.4,0,70.1,0,93.2c0,9.8,3.5,18.7,9.2,25.8V338.5z M41.7,123.3c-16.7,0-30.3-13.6-30.3-30.3
		c0-14.1,9.7-25.9,22.8-29.2c2.4-0.6,4.9-1,7.5-1s5.1,0.4,7.5,1C62.2,67.1,72,78.9,72,93C72,109.8,58.4,123.3,41.7,123.3z
		 M189.5,73.2c17,0,30.8,13.8,30.8,30.8s-13.8,30.8-30.8,30.8S158.7,121,158.7,104S172.5,73.2,189.5,73.2z M214.2,224.7
		c0,52-42.2,94.2-94.2,94.2s-94.2-42.2-94.2-94.2S68,130.5,120,130.5S214.2,172.7,214.2,224.7z"/>
	<path class="st0" d="M354.6,369.9H134.8c-4.3,0-8.3,3.5-8.8,7.8l-6,47.3c-0.5,4.3,2.5,7.8,6.9,7.8h235.5c4.3,0,7.4-3.5,6.9-7.8
		l-5.9-47.2C362.9,373.4,358.9,369.9,354.6,369.9z M166.2,417h-23.5v-7.9h23.5V417z M248.3,427.4c-13.8,0-25-11.2-25-25
		s11.2-25,25-25c8,0,15.1,3.8,19.6,9.7l-8.2,2.9c-4.1,1.4-6.2,5.9-4.8,10c1.1,3.2,4.2,5.2,7.4,5.2c0.9,0,1.7-0.1,2.6-0.5l8.2-2.9
		c0,0.2,0.1,0.4,0.1,0.5C273.4,416.2,262.2,427.4,248.3,427.4z"/>
	<path class="st0" d="M294.6,126.8c12.6,0,22.9-10.3,22.9-22.9S307.2,81,294.6,81s-22.9,10.3-22.9,22.9
		C271.7,116.6,282,126.8,294.6,126.8z"/>
	<path class="st0" d="M442.2,51.4c-11.6,0-22.1,4.8-29.7,12.4H260.4c-4.3,0-7.9,3.5-7.9,7.9v259.1h74l20.1,15.7h117.8
		c4.3,0,7.9-3.5,7.9-7.9V122.2c7.3-7.5,11.8-17.7,11.8-29C484.1,70.1,465.3,51.4,442.2,51.4z M472.3,96.9
		c-1.9,14.9-14.5,26.4-29.9,26.4c-16.7,0-30.3-13.6-30.3-30.3c0-14.1,9.7-25.9,22.8-29.2c2.4-0.6,4.9-1,7.5-1s5.1,0.4,7.5,1
		c11.9,3,20.8,13,22.4,25.4c0.2,1.3,0.4,2.5,0.4,3.8S472.5,95.6,472.3,96.9z M294.6,73.2c17,0,30.8,13.8,30.8,30.8
		s-13.8,30.8-30.8,30.8S263.9,121,263.9,104S277.7,73.2,294.6,73.2z M363.3,318.9c-52,0-94.2-42.2-94.2-94.2s42.2-94.2,94.2-94.2
		s94.2,42.2,94.2,94.2S415.4,318.9,363.3,318.9z"/>
	<polygon class="st0" points="323.9,338.5 252.5,338.5 229,338.5 166,338.5 155.9,346.4 135.9,362.1 354,362.1 333.9,346.4 	"/>
	<circle class="st0" cx="43.1" cy="93.3" r="14"/>
	<path class="st0" d="M443.5,79.3c7.7,0,14,6.2,14,13.9s-6.3,14-14,14s-14-6.2-14-14C429.6,85.5,435.8,79.3,443.5,79.3z"/>
	<path class="st0" d="M120,302.3c42.9,0,77.6-34.8,77.6-77.6c0-42.9-34.8-77.6-77.6-77.6c-42.9,0-77.6,34.8-77.6,77.6
		C42.4,267.6,77.1,302.3,120,302.3z M120,187c20.9,0,37.8,16.9,37.8,37.8s-16.9,37.8-37.8,37.8s-37.8-16.9-37.8-37.8
		S99.1,187,120,187z"/>
	<path class="st0" d="M363.3,147.1c-42.9,0-77.6,34.8-77.6,77.6c0,42.9,34.8,77.6,77.6,77.6c42.9,0,77.6-34.8,77.6-77.6
		C441,181.8,406.2,147.1,363.3,147.1z M363.3,262.5c-20.9,0-37.8-16.9-37.8-37.8s16.9-37.8,37.8-37.8s37.8,16.9,37.8,37.8
		C401.1,245.6,384.2,262.5,363.3,262.5z"/>
</g>
</svg>
